# xmcd
#
# Track frame offsets:
# 150
# 23214
# 35683
# 60127
# 73775
#
# Disc length: 1166 seconds
#
#
# Revision: 2
# Processed by: cddbd v1.5PL3 Copyright (c) Steve Scherf et al.
# Submitted via: FreeRIP 2.53 
#
DISCID=3b048c05
DTITLE=James Brown - GRANDES MITOS
DYEAR=1900
DGENRE=
TTITLE0=S
TTITLE1=P
TTITLE2=D
TTITLE3=S
TTITLE4=S
EXTD=
EXTT0=
EXTT1=
EXTT2=
EXTT3=
EXTT4=
PLAYORDER=
